# xmcd
#
# Track frame offsets:
#	150
#	16436
#	33855
#	50295
#
# Disc length: 890 seconds
#
# Revision: 0
# Processed by: cddbd v1.4PL0 Copyright (c) Steve Scherf et al.
# Submitted via: dBpowerAMP V4.0
#
DISCID=25037804
DTITLE=Heather Green - CD Sampler
DYEAR=2002
DGENRE=Country
TTITLE0=Something To Cry About
TTITLE1=All The Way
TTITLE2=Who Knows
TTITLE3=Leaving Tomorrow Behind
EXTD=This is Heather Greens first CD
EXTT0=
EXTT1=
EXTT2=
EXTT3=
PLAYORDER=
